<?xml version="1.0" ?><svg id="Layer_1" style="enable-background:new 0 0 48 48;" version="1.1" viewBox="0 0 48 48" xml:space="preserve" xmlns="http://www.w3.org/2000/svg" xmlns:xlink="http://www.w3.org/1999/xlink"><style type="text/css">
	.st0{fill:#F0C4DB;}
	.st1{fill:#FF9D9C;}
	.st2{fill:#9BEAF9;}
	.st3{fill:#E9F4BC;}
	.st4{fill:#505050;}
	.st5{fill:#FEBECC;}
	.st6{fill:#FFFFFF;}
	.st7{fill:#FDE4A1;}
	.st8{fill:#FEE7B5;}
	.st9{fill:#CDF6FC;}
	.st10{fill:#F2C6DD;}
	.st11{opacity:0.1;}
</style><g><path class="st5" d="M27.97,48.8c0.98-2.43,1.54-5.08,1.54-7.87c0-11.6-9.4-21-21-21c-2.62,0-5.13,0.5-7.44,1.38V48.8H27.97z"/><g><rect class="st6" height="30.71" width="40.53" x="4.92" y="5.58"/><path class="st2" d="M48.18,3.77c0,0.5-0.2,0.95-0.53,1.28c-0.33,0.33-0.78,0.53-1.28,0.53H3.99c-1,0-1.81-0.81-1.81-1.81    c0-0.5,0.2-0.95,0.53-1.28c0.33-0.33,0.78-0.53,1.28-0.53h42.38C47.37,1.96,48.18,2.77,48.18,3.77z"/><path class="st1" d="M16,9.27c-4.5,0-8.15,3.65-8.15,8.15c0,4.5,3.65,8.15,8.15,8.15s8.15-3.65,8.15-8.15H16V9.27z"/><path class="st7" d="M16,9.27v8.15h8.15C24.14,12.92,20.5,9.27,16,9.27z"/><g><path class="st4" d="M46.37,1.2H3.99c-0.67,0-1.33,0.28-1.8,0.75C1.71,2.43,1.43,3.09,1.43,3.76c0,1.41,1.15,2.56,2.57,2.56h0.17     v29.97c0,0.41,0.34,0.75,0.75,0.75h19.51v6.33l-4.64,4.02c-0.31,0.27-0.35,0.74-0.08,1.06c0.15,0.17,0.36,0.26,0.57,0.26     c0.17,0,0.35-0.06,0.49-0.18l3.66-3.17v2.6c0,0.41,0.34,0.75,0.75,0.75s0.75-0.34,0.75-0.75v-2.6l3.66,3.17     c0.14,0.12,0.32,0.18,0.49,0.18c0.21,0,0.42-0.09,0.57-0.26c0.27-0.31,0.24-0.79-0.08-1.06l-4.64-4.02v-6.33h19.51     c0.41,0,0.75-0.34,0.75-0.75V6.32h0.18c0.67,0,1.33-0.27,1.8-0.75c0.48-0.47,0.76-1.13,0.75-1.81C48.93,2.35,47.78,1.2,46.37,1.2     z M47.12,4.51c-0.21,0.21-0.46,0.31-0.75,0.31H13.22c-0.41,0-0.75,0.34-0.75,0.75c0,0.42,0.34,0.75,0.75,0.75H44.7v29.22H5.67     V6.32h3.55c0.41,0,0.75-0.33,0.75-0.75c0-0.41-0.34-0.75-0.75-0.75H4c-0.59,0-1.06-0.47-1.07-1.06c0.01-0.29,0.11-0.54,0.32-0.75     C3.46,2.81,3.71,2.7,4,2.7h42.37c0.59,0,1.06,0.48,1.06,1.06C47.43,4.05,47.33,4.3,47.12,4.51z"/><circle class="st4" cx="11.22" cy="5.57" r="0.75"/><path class="st4" d="M7.1,17.42c0,4.91,3.99,8.9,8.9,8.9c4.91,0,8.9-3.99,8.9-8.9s-3.99-8.9-8.9-8.9     C11.09,8.52,7.1,12.51,7.1,17.42z M23.36,16.67h-6.61v-6.61C20.23,10.41,23.01,13.19,23.36,16.67z M15.25,10.06v7.36     c0,0.41,0.34,0.75,0.75,0.75h7.36c-0.38,3.73-3.53,6.65-7.36,6.65c-4.08,0-7.4-3.32-7.4-7.4C8.6,13.59,11.52,10.43,15.25,10.06z"/><path class="st4" d="M22.74,27.59H10.51c-0.41,0-0.75,0.34-0.75,0.75s0.34,0.75,0.75,0.75h12.22c0.41,0,0.75-0.34,0.75-0.75     S23.15,27.59,22.74,27.59z"/><path class="st4" d="M22.74,30.23H10.51c-0.41,0-0.75,0.34-0.75,0.75s0.34,0.75,0.75,0.75h12.22c0.41,0,0.75-0.34,0.75-0.75     S23.15,30.23,22.74,30.23z"/><path class="st4" d="M22.74,32.86H10.51c-0.41,0-0.75,0.34-0.75,0.75s0.34,0.75,0.75,0.75h12.22c0.41,0,0.75-0.34,0.75-0.75     S23.15,32.86,22.74,32.86z"/><path class="st4" d="M37.52,21.26c-1.19,0-2.15-0.97-2.15-2.15c0-0.41-0.34-0.75-0.75-0.75s-0.75,0.34-0.75,0.75     c0,1.76,1.25,3.23,2.9,3.57v0.82c0,0.41,0.34,0.75,0.75,0.75s0.75-0.34,0.75-0.75v-0.82c1.65-0.35,2.9-1.82,2.9-3.57     c0-2.01-1.64-3.65-3.65-3.65c-1.19,0-2.15-0.97-2.15-2.15s0.97-2.15,2.15-2.15s2.15,0.97,2.15,2.15c0,0.41,0.34,0.75,0.75,0.75     s0.75-0.34,0.75-0.75c0-1.76-1.25-3.23-2.9-3.57V8.9c0-0.41-0.34-0.75-0.75-0.75s-0.75,0.34-0.75,0.75v0.82     c-1.66,0.35-2.9,1.82-2.9,3.57c0,2.01,1.64,3.65,3.65,3.65c1.19,0,2.15,0.97,2.15,2.15S38.71,21.26,37.52,21.26z"/></g></g></g></svg>